<svg width="42" height="42" viewBox="0 0 42 42" fill="none" xmlns="http://www.w3.org/2000/svg">
<path d="M17.42 27.6401C18.0067 27.0534 18.3 26.4334 18.3 25.7801V14.9201H29.26V24.5601C28.78 24.2934 28.2133 24.1601 27.56 24.1601C27.0533 24.1601 26.54 24.2534 26.02 24.4401C25.3133 24.6801 24.7467 25.0601 24.32 25.5801C23.8933 26.0867 23.68 26.6067 23.68 27.1401C23.68 27.4601 23.76 27.7467 23.92 28.0001C24.2933 28.6267 24.96 28.9401 25.92 28.9401C26.3867 28.9401 26.8933 28.8667 27.44 28.7201C28.16 28.5334 28.7933 28.1667 29.34 27.6201C29.94 27.0467 30.24 26.4334 30.24 25.7801V13.0601H17.32V24.5601C16.84 24.3067 16.28 24.1801 15.64 24.1801C15.1333 24.1801 14.62 24.2667 14.1 24.4401C13.3933 24.6934 12.8267 25.0734 12.4 25.5801C11.9733 26.0867 11.76 26.6134 11.76 27.1601C11.76 27.4667 11.8333 27.7467 11.98 28.0001C12.3533 28.6267 13.02 28.9401 13.98 28.9401C14.4467 28.9401 14.96 28.8667 15.52 28.7201C16.2267 28.5334 16.86 28.1734 17.42 27.6401Z" fill="white"/>
</svg>
