<svg width="42" height="42" viewBox="0 0 42 42" fill="none" xmlns="http://www.w3.org/2000/svg">
<path d="M23.84 26.36C23.84 27.0133 23.5467 27.6333 22.96 28.22C22.4 28.7533 21.7667 29.1133 21.06 29.3C20.5 29.4467 19.9867 29.52 19.52 29.52C18.56 29.52 17.8933 29.2067 17.52 28.58C17.3733 28.3267 17.3 28.0467 17.3 27.74C17.3 27.1933 17.5133 26.6667 17.94 26.16C18.3667 25.6533 18.9333 25.2733 19.64 25.02C20.16 24.8467 20.6733 24.76 21.18 24.76C21.82 24.76 22.38 24.8867 22.86 25.14V13.64H23.84V26.36Z" fill="white"/>
</svg>
