<svg width="501" height="128" viewBox="0 0 501 128" fill="none" xmlns="http://www.w3.org/2000/svg">
<path d="M8.448 109V18.12H27.648V48.84C31.36 42.056 38.4 38.856 46.592 38.856C61.952 38.856 69.76 49.608 69.76 64.84V109H50.56V69.448C50.56 59.336 47.616 54.088 40.192 54.088C32.256 54.088 27.648 59.592 27.648 69.96V109H8.448ZM73.669 31.944V16.584H93.509V31.944H73.669ZM74.053 109V40.392H93.253V109H74.053ZM128.319 109C114.111 109 107.711 102.728 107.711 88.392V54.728H96.703V40.392H107.711V24.264H126.911V40.392H144.959V54.728H126.911V86.088C126.911 92.744 129.727 94.664 135.359 94.664H144.959V109H128.319ZM148.568 109V40.392H165.848L166.232 51.528C169.688 43.464 176.6 38.856 184.92 38.856C194.776 38.856 201.56 44.232 204.504 52.808C207.704 43.72 214.744 38.856 223.832 38.856C237.912 38.856 246.872 47.944 246.872 64.84V109H227.672V70.216C227.672 59.464 224.472 54.088 217.304 54.088C210.264 54.088 206.296 60.104 206.296 70.472V109H189.016V70.472C189.016 59.848 186.2 54.088 178.776 54.088C171.736 54.088 167.768 60.104 167.768 70.472V109H148.568ZM272.305 110.536C257.969 110.536 248.241 103.624 248.241 91.848C248.241 79.816 255.793 73.672 270.769 70.6L292.913 66.248C292.913 57.288 288.817 52.808 281.265 52.808C273.969 52.808 270.001 56.264 268.721 62.664L249.393 61.768C251.953 46.664 263.345 38.856 281.265 38.856C301.745 38.856 312.113 48.84 312.113 67.528V90.952C312.113 94.792 313.393 95.816 315.953 95.816H317.873V109C316.721 109.384 313.649 109.768 311.089 109.768C303.921 109.768 297.649 107.208 295.985 98.504C292.529 105.8 284.081 110.536 272.305 110.536ZM276.913 97.352C286.513 97.352 292.913 91.464 292.913 81.608V78.28L277.297 81.608C271.025 82.888 267.953 85.576 267.953 90.056C267.953 94.664 271.025 97.352 276.913 97.352ZM320.553 109V18.12H339.753V68.552L365.225 40.392H388.265L361.641 68.68L389.033 109H368.041L349.225 79.56L339.753 89.672V109H320.553ZM417.346 110.536C396.354 110.536 382.786 96.328 382.786 74.696C382.786 53.064 396.354 38.856 417.218 38.856C437.57 38.856 450.882 52.936 450.882 75.976V79.816H402.626C403.138 90.696 408.898 95.944 417.73 95.944C424.13 95.944 428.738 93.256 430.53 87.624L449.858 88.776C446.146 102.472 433.858 110.536 417.346 110.536ZM402.626 68.04H431.17C430.658 58.056 425.154 53.064 417.218 53.064C409.154 53.064 403.65 58.568 402.626 68.04ZM455.068 109V40.392H473.244L473.756 54.088C476.444 44.488 481.692 40.392 490.012 40.392H496.284V56.264H490.012C479.26 56.264 474.268 60.232 474.268 70.472V109H455.068Z" fill="white"/>
</svg>
